<?xml version="1.0" standalone="yes"?>

<svg version="1.1" viewBox="0.0 0.0 251.0236220472441 169.0" fill="none" stroke="none" stroke-linecap="square" stroke-miterlimit="10" xmlns="http://www.w3.org/2000/svg" xmlns:xlink="http://www.w3.org/1999/xlink"><clipPath id="p.0"><path d="m0 0l251.02362 0l0 169.0l-251.02362 0l0 -169.0z" clip-rule="nonzero"></path></clipPath><g clip-path="url(#p.0)"><path fill="#000000" fill-opacity="0.0" d="m0 0l251.02362 0l0 169.0l-251.02362 0z" fill-rule="evenodd"></path><path fill="#000000" fill-opacity="0.0" d="m7.9986877 16.0l237.22835 0" fill-rule="evenodd"></path><path stroke="#000000" stroke-width="3.0" stroke-linejoin="round" stroke-linecap="butt" d="m7.9986877 16.0l219.22835 0" fill-rule="evenodd"></path><path fill="#000000" stroke="#000000" stroke-width="3.0" stroke-linecap="butt" d="m227.22704 20.955196l13.614288 -4.9551964l-13.614288 -4.9551973z" fill-rule="evenodd"></path><path fill="#000000" fill-opacity="0.0" d="m245.22704 52.55118c-40.34645 0 -60.519684 26.89764 -80.69292 53.795277c-20.173233 26.897636 -40.34645 53.79528 -80.69291 53.79528" fill-rule="evenodd"></path><path stroke="#000000" stroke-width="3.0" stroke-linejoin="round" stroke-linecap="butt" d="m245.22704 52.55118c-40.34645 0 -60.519684 26.89764 -80.69292 53.795277c-10.086609 13.448814 -20.173233 26.897636 -32.781494 36.984245c-6.3041306 5.0433044 -13.238678 9.246063 -21.11885 12.188004c-1.9700394 0.73547363 -3.999176 1.3921509 -6.092354 1.9634705c-0.52329254 0.14282227 -1.0505829 0.2803192 -1.5819626 0.41236877c-0.26568604 0.06602478 -0.5323868 0.13069153 -0.8001251 0.19400024l-0.4246521 0.0978241" fill-rule="evenodd"></path><path fill="#000000" stroke="#000000" stroke-width="3.0" stroke-linecap="butt" d="m101.196396 153.2605l-12.995438 6.4048157l14.072014 3.44693z" fill-rule="evenodd"></path></g></svg>

