<svg xmlns="http://www.w3.org/2000/svg" xmlns:xlink="http://www.w3.org/1999/xlink" version="1.1" id="Layer_1" x="0px" y="0px" width="100px" height="100px" viewBox="0 0 100 100" enable-background="new 0 0 100 100" xml:space="preserve">
<path d="M86.635,78.191l0.651,0.021l0.149-1.5l-9.002-0.302l-1.051-1.05l-0.425-0.04l0.604-5.324l-0.659-0.074l-0.606,5.336  L67.78,74.46l-0.302-7.803l10.205,3.302l0.6-0.75l-3.15-1.051l5.852-0.601l0.3-0.601l-0.476-0.051l0.051-0.01l-0.781-4.165  l0.155,0.025l0.9-1.651l-6.752-1.05l-2.252-2.4v-2.401l3.753,4.651l1.199,0.45l-2.4-4.052l2.851-0.449l0.151-0.601l-1.355-0.175  l-0.354-4.487l0.059,0.012l11.403-4.052l0.15-1.051l-0.441-0.074l-0.882-3.2L88.035,41l-10.352-1.95l-0.151-0.751l1.197-1.088  l0.837-0.14l-0.87-5.077l0.787-1.048l-3.451-1.8l1.048-0.996l2.055-0.921l-0.238-0.804l0.137-0.131l-0.189-0.045l-0.645-2.176  l0.984-1.229l-3.767-0.991l-0.221-2.428l0.386-0.481L51.574,5.438L24.865,24.644c-0.9,6.452,0.601,6.002,0.601,6.002l2.701,0.901  l-6.453,3.75c-1.501,1.951-0.3,5.402-0.3,5.402c-1.95,2.25-0.149,5.25-0.149,5.25l4.201,1.201l-4.052,3.902  c-1.05,3.45,1.5,3.45,1.5,3.45h1.2l0.15,1.5l-4.951,0.601c-2.251,2.551,0.15,4.201,0.15,4.201l6.902,1.951l-3.601,1.2  c-1.501,1.2-0.751,4.052-0.751,4.052l-4.201,0.6c-2.25,2.251-0.45,7.652-0.45,7.652l7.351,0.3l-10.352,0.45  c-3.902,3.002-0.901,10.953-0.901,10.953l44.264,5.402l30.31-4.501l-0.939-0.939C86.854,86.874,86.014,82.719,86.635,78.191z   M78.597,36.559l-13.368-5.463l-6.452-3.901l-1.199,0.45l-3.902-2.25c-1.05-1.65-0.3-5.702-0.3-5.702L78,31.858l0.798,4.667  L78.597,36.559z M74.981,38.75l-12.154-2.701l-4.2-2.402c-1.5-2.1,0-4.651,0-4.651L74.981,38.75z M52.025,6.938l22.504,12.503  l0.203,2.231l-12.655-3.331l-10.202-5.251C51.273,10.389,52.025,6.938,52.025,6.938z M43.772,14.741l33.542,8.685l0.785,2.648  l-15.571-3.681l-9.752-4.651l-2.701,1.35l-6.152-1.35C42.721,15.041,43.772,14.741,43.772,14.741z M41.371,33.646l44.207,8.605  l0.842,3.051l-44.899-7.604C40.771,36.049,41.371,33.646,41.371,33.646z M50.225,45.802l25.071,4.664l0.359,4.526l-2.624-0.338  l-1.801-2.401l-7.352,0.601l-14.255-2.852C47.973,47.002,50.225,45.802,50.225,45.802z M50.673,57.955l28.708,4.663l0.791,4.22  l-29.35-3.181C49.023,61.405,50.673,57.955,50.673,57.955z M57.877,77.311l28.091,0.86c-0.544,4.052,0.05,7.806,0.37,9.388  l-28.011,3.557C54.876,84.813,57.877,77.311,57.877,77.311z"/>
</svg>