<svg xmlns="http://www.w3.org/2000/svg" xmlns:xlink="http://www.w3.org/1999/xlink" version="1.1" x="0px" y="0px" width="100px" height="100px" viewBox="0 0 100 100" enable-background="new 0 0 100 100" xml:space="preserve">
<g id="Captions">
</g>
<g id="Your_Icon">
	<path d="M87.144,21.631c-4.296-5.343-9.594-9.615-15.749-12.701c-6.866-3.443-14.53-5.188-22.166-5.045   c-2.961,0.056-5.87,0.389-8.703,0.967l-10.691,15.07l19.506,0.044c0.063-0.002,0.125-0.008,0.188-0.009   c5.113-0.096,10.048,1.029,14.659,3.342c4.08,2.046,7.586,4.872,10.423,8.401c7.69,9.574,9.104,22.855,3.6,33.834   c-5.263,10.489-15.829,17.141-27.574,17.359c-5.116,0.096-10.048-1.028-14.659-3.342c-7.514-3.767-13.109-10.235-15.756-18.212   c-2.648-7.977-2.031-16.507,1.738-24.019c0.765-1.526,1.654-2.96,2.632-4.316c4.363,1.499,9.325,1.176,13.626-1.329   c3.823-2.228,6.411-5.762,7.533-9.707l-19.8-0.045L38.886,3.691c-5.04-3.274-11.682-3.676-17.229-0.443   c-6.236,3.631-9.179,10.728-7.841,17.43c-2.408,2.847-4.506,6.005-6.226,9.436c-5.693,11.35-6.625,24.239-2.625,36.291   c4.001,12.052,12.455,21.823,23.806,27.517c6.865,3.443,14.53,5.188,22.167,5.045c17.737-0.331,33.694-10.379,41.641-26.225   C100.894,56.157,98.76,36.096,87.144,21.631z M21.837,9.838c0.545-1.085,1.864-1.52,2.947-0.979   c1.083,0.544,1.522,1.862,0.979,2.947c-0.542,1.083-1.863,1.521-2.948,0.978C21.735,12.241,21.294,10.923,21.837,9.838z"/>
</g>
</svg>