<svg xmlns="http://www.w3.org/2000/svg" xmlns:xlink="http://www.w3.org/1999/xlink" version="1.1" id="Layer_1" x="0px" y="0px" viewBox="0 0 100 100" enable-background="new 0 0 100 100" xml:space="preserve" height="100px" width="100px">
<g>
	<path fill="#000000" d="M82.8,33.8c0-3.2-2.6-5.8-5.7-5.8c-1-2.8-2.5-5.3-4.3-7.7c0.9-1.2,1.4-2.7,1.4-4.4c0-4.2-3.4-7.6-7.6-7.6   c-2.3,0-4.4,1.1-5.8,2.7c-2.5-1-5.2-1.8-8-2.1c-0.7-1.9-2.5-3.3-4.6-3.3c-2.3,0-4.2,1.6-4.7,3.7c-5.8,1.2-10.9,4.1-14.9,8.2   c-0.8-0.4-1.7-0.6-2.6-0.6c-3.2,0-5.8,2.6-5.8,5.8c0,1.8,0.8,3.4,2.1,4.4c-1.4,3.4-2.1,7.1-2.1,11c0,1.2,0.1,2.3,0.2,3.4   c-2.4,1.3-4,3.8-4,6.7c0,4.2,3.4,7.6,7.6,7.6c0.7,0,1.3-0.1,1.9-0.3c2.2,3,5,5.6,8.2,7.6c-0.1,0.4-0.2,0.8-0.2,1.2   c0,2.7,2.2,4.9,4.9,4.9c1.8,0,3.3-1,4.2-2.4c2.1,0.5,4.3,0.8,6.6,0.8c4.3,0,8.3-0.9,11.9-2.5c1.1,1.3,2.7,2.1,4.6,2.1   c3.4,0,6.1-2.7,6.1-6.1c0-1.1-0.3-2.2-0.8-3.1c4.5-5,7.4-11.5,7.6-18.7C81.1,38.5,82.8,36.4,82.8,33.8z M31.2,46.5   c2.9-1.3,6.4-2.7,10.1-4l-1.8,9.9l-8.3-2.3c0.1-0.6,0.2-1.2,0.2-1.8C31.5,47.7,31.4,47.1,31.2,46.5z M41.3,57.3l0.3-1.6l0.6,0.2   L41.3,57.3z M42,53.1l2-11.3l4,3.8l-4.5,7.9L42,53.1z M59.3,18c0.4,1.5,1.3,2.8,2.5,3.8L58,28.4l-2.3-0.5l-3.1-8.7L59.3,18z    M71.8,31.4L60.6,29l3.4-5.9c0.8,0.3,1.7,0.5,2.6,0.5c1.6,0,3.1-0.5,4.3-1.4c1.5,1.9,2.7,4.1,3.5,6.4   C73.3,29.2,72.3,30.2,71.8,31.4z M62.6,56.1L51.3,45.2l3.9-6.7c0.5-0.1,0.9-0.2,1.4-0.3l6.3,17.7C62.8,56,62.7,56,62.6,56.1z    M44.3,25.5l-11.7-2.5l12.6-2.3L44.3,25.5z M46.4,28.6l7.3,1.6l1.2,3.5l-1.5,2.6c-2.1,0.5-4.1,1-6.1,1.5c-0.9,0.3-1.9,0.6-2.8,0.9   L46.4,28.6z M48.1,40.3c1.2-0.3,2.3-0.7,3.6-1l-2.4,4.1l-2.8-2.6C47.1,40.6,47.6,40.4,48.1,40.3z M57.8,33.9l1.5-2.6l9.9,2.1   c-3.2,0.4-7,1-10.9,1.8L57.8,33.9z M52.7,27.3L46.8,26l1-5.9l2.2-0.4L52.7,27.3z M48.3,17.4l0.3-1.7l0.5,1.5L48.3,17.4z M46.1,15.1   l-0.5,2.8l-14.3,2.6c-0.2-0.4-0.4-0.8-0.7-1.2c3.5-3.5,8-6,13-7.2C44,13.5,44.9,14.5,46.1,15.1z M31.2,25.3L43.9,28l-1.5,8.7   L30.9,25.8C31,25.6,31.1,25.5,31.2,25.3z M49.9,47.5l10.9,10.4c-0.1,0.1-0.1,0.2-0.2,0.4l-14.6-4L49.9,47.5z M66,55   c-0.3,0-0.5,0-0.8,0.1l-6.1-17.4c4.6-0.9,9.1-1.5,12.4-1.9c0.7,2,2.5,3.5,4.7,3.8c-0.3,6.3-2.8,12.1-6.8,16.6   C68.5,55.4,67.3,55,66,55z M59.1,15.4l-7.3,1.3L51,14.7c1-0.7,1.7-1.8,2-3c2.3,0.3,4.5,0.9,6.5,1.7C59.3,14.1,59.1,14.7,59.1,15.4z    M22.7,38.3c0-3.5,0.7-6.8,1.9-9.8c0.4,0.1,0.9,0.2,1.4,0.2c1.2,0,2.3-0.4,3.2-1l12.5,12c-4.2,1.5-8.2,3.1-11.5,4.5   c-1.4-2-3.7-3.4-6.3-3.4c-0.4,0-0.7,0-1.1,0.1C22.8,40,22.7,39.2,22.7,38.3z M28.2,54.5c0.8-0.5,1.4-1.2,2-2l8.9,2.5l-0.8,4.5   c-1.2,0.1-2.3,0.6-3.1,1.4C32.5,59.2,30.2,57.1,28.2,54.5z M49.5,65.1c-2,0-4-0.2-5.9-0.7c0,0,0,0,0-0.1c0-1.3-0.5-2.6-1.4-3.4   l2.5-4.4L60,60.8c0,0.1,0,0.2,0,0.3c0,0.6,0.1,1.2,0.3,1.7C56.9,64.3,53.3,65.1,49.5,65.1z"/>
	<path fill="#000000" d="M32.6,67.5c-0.5-0.5-1.3-0.6-1.8-0.1c-0.5,0.5-0.6,1.3-0.1,1.8c3.2,3.5,5.7,8,7.4,13.1l-3.8-0.5   c2.4,1.8,5,4.9,6.7,7.6c0.4-3.1,1.5-7,2.9-9.7l-3.3,2.1C38.9,76.2,36.2,71.3,32.6,67.5z"/>
	<path fill="#000000" d="M68.1,67.5c-3.6,3.9-6.3,8.7-8,14.3l-3.3-2.1c1.4,2.6,2.5,6.6,2.9,9.7c1.7-2.6,4.3-5.8,6.7-7.6l-3.8,0.5   c1.6-5.1,4.1-9.6,7.4-13.1c0.5-0.5,0.5-1.3-0.1-1.8C69.4,66.9,68.5,66.9,68.1,67.5z"/>
	<path fill="#000000" d="M51.7,77.9c0-0.7-0.6-1.3-1.3-1.3s-1.3,0.6-1.3,1.3v11.5l-2.4-0.9c1.5,1.7,2.9,4.4,3.7,6.6   c0.8-2.2,2.2-4.9,3.7-6.6l-2.4,0.9V77.9z"/>
</g>
</svg>