<?xml version="1.0" standalone="yes"?>

<svg version="1.1" viewBox="0.0 0.0 205.0 100.0" fill="none" stroke="none" stroke-linecap="square" stroke-miterlimit="10" xmlns="http://www.w3.org/2000/svg" xmlns:xlink="http://www.w3.org/1999/xlink"><clipPath id="p.0"><path d="m0 0l205.0 0l0 100.0l-205.0 0l0 -100.0z" clip-rule="nonzero"></path></clipPath><g clip-path="url(#p.0)"><path fill="#000000" fill-opacity="0.0" d="m0 0l205.61679 0l0 100.41207l-205.61679 0z" fill-rule="nonzero"></path><path fill="#000000" fill-opacity="0.0" d="m6.0183725 7.632546c6.164917 9.908136 4.4024496 46.237534 36.989502 59.448822c32.58705 13.211281 132.11067 16.515747 158.5328 19.818893" fill-rule="nonzero"></path><path stroke="#ffffff" stroke-width="4.0" stroke-linejoin="round" stroke-linecap="butt" d="m6.0183725 7.632546c6.164918 9.908136 4.4024496 46.237534 36.989502 59.448822c16.293522 6.6056366 49.321198 10.734581 81.57825 13.625c16.128525 1.4452057 32.064392 2.5807877 45.619522 3.5615158c1.694397 0.12258911 3.351593 0.2427597 4.9673004 0.36080933l2.4589233 0.18141174" fill-rule="evenodd"></path><path fill="#ffffff" stroke="#ffffff" stroke-width="4.0" stroke-linecap="butt" d="m177.05647 91.39193l18.658813 -5.000931l-17.50801 -8.16272z" fill-rule="evenodd"></path></g></svg>

